v -0.259890 -2.000000 1.222685
v -0.508421 -2.000000 -1.141932
v -0.259890 0.000000 1.222685
v -0.508421 0.000000 -1.141932
v -0.273328 -2.000000 -1.219644
v -0.027555 -2.000000 -1.249639
v 0.219307 -2.000000 -1.230527
v 0.457558 -2.000000 -1.163146
v 0.677886 -2.000000 -1.050176
v 0.871546 -2.000000 -0.895902
v 1.031115 -2.000000 -0.706576
v 1.150090 -2.000000 -0.489431
v 1.224029 -2.000000 -0.253133
v 1.249910 -2.000000 -0.006889
v 1.226717 -2.000000 0.239619
v 1.155488 -2.000000 0.476755
v 1.038770 -2.000000 0.695119
v 0.881416 -2.000000 0.886287
v 0.689391 -2.000000 1.042597
v 0.470356 -2.000000 1.158040
v 0.232862 -2.000000 1.228061
v -0.013777 -2.000000 1.249820
v -0.489918 -2.000000 1.149881
v -0.701729 -2.000000 1.034353
v -0.887396 -2.000000 0.880277
v -1.039947 -2.000000 0.693357
v -1.153856 -2.000000 0.480667
v -1.224649 -2.000000 0.250014
v -1.249868 -2.000000 0.010068
v -1.228577 -2.000000 -0.230263
v -1.161379 -2.000000 -0.461988
v -1.051025 -2.000000 -0.676541
v -0.901448 -2.000000 -0.865852
v -0.718286 -2.000000 -1.022894
v -0.273328 0.000000 -1.219644
v -0.027555 0.000000 -1.249639
v 0.219307 0.000000 -1.230527
v 0.457558 0.000000 -1.163146
v 0.677886 0.000000 -1.050176
v 0.871546 0.000000 -0.895902
v 1.031115 0.000000 -0.706576
v 1.150090 0.000000 -0.489431
v 1.224029 0.000000 -0.253133
v 1.249910 0.000000 -0.006889
v 1.226717 0.000000 0.239619
v 1.155488 0.000000 0.476755
v 1.038770 0.000000 0.695119
v 0.881416 0.000000 0.886287
v 0.689391 0.000000 1.042597
v 0.470356 0.000000 1.158040
v 0.232862 0.000000 1.228061
v -0.013777 0.000000 1.249820
v -0.508421 -1.750000 -1.141932
v -0.508421 -1.500000 -1.141932
v -0.508421 -1.250000 -1.141932
v -0.508421 -1.000000 -1.141932
v -0.508421 -0.750000 -1.141932
v -0.508421 -0.500000 -1.141932
v -0.508421 -0.250000 -1.141932
v -0.259890 -0.250000 1.222685
v -0.259890 -0.500000 1.222685
v -0.259890 -0.750000 1.222685
v -0.259890 -1.000000 1.222685
v -0.259890 -1.250000 1.222685
v -0.259890 -1.500000 1.222685
v -0.259890 -1.750000 1.222685
v -0.489918 0.000000 1.149881
v -0.701729 0.000000 1.034353
v -0.887396 0.000000 0.880277
v -1.039947 0.000000 0.693357
v -1.153856 0.000000 0.480667
v -1.224649 0.000000 0.250014
v -1.249868 0.000000 0.010068
v -1.228577 0.000000 -0.230263
v -1.161379 0.000000 -0.461988
v -1.051025 0.000000 -0.676541
v -0.901448 0.000000 -0.865852
v -0.718286 0.000000 -1.022894
v -0.310584 -2.000000 -0.188733
v 0.070091 -2.000000 0.007879
v -0.159639 -2.000000 -0.347785
v -0.128867 -2.000000 -0.084157
v 0.492290 -2.000000 0.929538
v 0.284713 -2.000000 0.963854
v 0.638183 -2.000000 0.781589
v 0.090708 -2.000000 1.044351
v 0.817018 -2.000000 0.672851
v -0.111579 -2.000000 1.006763
v 0.895323 -2.000000 0.478203
v -0.314939 -2.000000 1.006879
v 1.011857 -2.000000 0.304357
v -0.481581 -2.000000 0.899036
v 1.004391 -2.000000 0.095382
v -0.653827 -2.000000 0.771397
v 1.043745 -2.000000 -0.108533
v -0.820179 -2.000000 0.664479
v 0.958751 -2.000000 -0.300953
v -0.896266 -2.000000 0.478725
v 0.923449 -2.000000 -0.507915
v -1.006959 -2.000000 0.310198
v 0.770452 -2.000000 -0.650034
v -1.005052 -2.000000 0.106087
v 0.655286 -2.000000 -0.824604
v -1.050931 -2.000000 -0.093046
v 0.460976 -2.000000 -0.899078
v -0.976292 -2.000000 -0.282981
v 0.286467 -2.000000 -1.011621
v -0.942903 -2.000000 -0.485093
v 0.077710 -2.000000 -1.009071
v -0.797343 -2.000000 -0.628810
v -0.127337 -2.000000 -1.047676
v -0.689587 -2.000000 -0.801387
v -0.319598 -2.000000 -0.975953
v -0.510700 -2.000000 -0.894871
v 0.369880 -2.000000 0.695719
v 0.062911 -2.000000 0.786588
v 0.616027 -2.000000 0.505155
v -0.239661 -2.000000 0.763149
v 0.774314 -2.000000 0.234200
v 0.788959 -2.000000 -0.078602
v -0.625998 -2.000000 0.503451
v -0.759823 -2.000000 0.238056
v 0.692648 -2.000000 -0.378950
v 0.496049 -2.000000 -0.623296
v -0.801146 -2.000000 -0.070837
v -0.713268 -2.000000 -0.367160
v 0.213451 -2.000000 -0.761197
v -0.098427 -2.000000 -0.797478
v -0.526466 -2.000000 -0.616216
v -0.461759 -2.000000 0.676535
v -0.334777 -2.000000 -0.754826
v 0.344293 -2.000000 0.391167
v 0.158820 -2.000000 0.537755
v -0.076603 -2.000000 0.512237
v 0.520714 -2.000000 0.258765
v 0.577898 -2.000000 0.065832
v 0.503300 -2.000000 -0.149591
v -0.465520 -2.000000 0.260409
v -0.580434 -2.000000 0.060981
v 0.443314 -2.000000 -0.370489
v 0.251502 -2.000000 -0.469731
v -0.533076 -2.000000 -0.155629
v -0.416272 -2.000000 -0.375218
v 0.023113 -2.000000 -0.535625
v -0.330067 -2.000000 0.474428
v -0.243739 -2.000000 -0.550187
v 0.089202 -2.000000 0.285674
v 0.320161 -2.000000 0.090028
v 0.258902 -2.000000 -0.196812
v -0.347569 -2.000000 0.024858
v -0.158903 -2.000000 0.210392
v 0.048872 -2.000000 -0.276346
v 0.710776 -0.879366 1.027735
v 0.308979 -0.999343 -1.210899
v 1.106347 -0.997802 0.581138
v 0.990134 -0.991986 0.762278
v -0.092301 -1.830593 1.246171
v 0.112885 -1.796755 1.244551
v -0.056944 -1.625555 1.248509
v 0.346167 -1.780054 1.200700
v -0.034491 -1.384274 1.249097
v 0.582616 -1.785235 1.105545
v -0.033486 -1.128673 1.249123
v 0.789262 -1.785235 0.969202
v -0.032746 -0.874993 1.249143
v 0.964713 -1.785235 0.794518
v -0.032379 -0.619432 1.249152
v 1.102246 -1.785235 0.588690
v -0.056238 -0.375215 1.248527
v 1.196642 -1.785235 0.359868
v -0.092301 -0.169407 1.246171
v 1.244232 -1.785235 0.116946
v 1.243154 -1.785235 -0.130638
v 0.113458 -0.204128 1.244506
v 1.192741 -1.785235 -0.373037
v 0.346056 -0.221847 1.200733
v 1.095693 -1.785235 -0.600761
v 0.582616 -0.214765 1.105545
v 0.955793 -1.785235 -0.804962
v 0.789262 -0.214765 0.969202
v 0.778478 -1.785235 -0.977703
v 0.964713 -0.214765 0.794518
v 0.568867 -1.780754 -1.113010
v 1.102246 -0.214765 0.588690
v 0.340071 -1.785235 -1.202506
v 1.196642 -0.214765 0.359868
v 0.089841 -1.773725 -1.246365
v 1.244232 -0.214765 0.116946
v -0.148314 -1.796746 -1.240828
v 1.243154 -0.214765 -0.130638
v -0.349365 -1.830583 -1.199753
v 1.192741 -0.214765 -0.373037
v 1.095693 -0.214765 -0.600761
v -0.315271 -1.625551 -1.209389
v 0.955793 -0.214765 -0.804962
v -0.299320 -1.383247 -1.213218
v 0.778478 -0.214765 -0.977703
v -0.303902 -1.125000 -1.212118
v 0.569294 -0.218398 -1.112778
v -0.303902 -0.875000 -1.212118
v 0.340071 -0.214765 -1.202506
v -0.299014 -0.615599 -1.213292
v 0.089718 -0.224844 -1.246375
v -0.315093 -0.374636 -1.209431
v -0.148069 -0.203302 -1.240860
v -0.348503 -0.170084 -1.200008
v 0.200776 -1.541008 1.233641
v 0.463854 -1.576178 1.160392
v 0.186168 -1.261709 1.235845
v 0.683774 -1.567792 1.046294
v 0.204998 -1.008012 1.232858
v 0.876740 -1.567403 0.890662
v 0.196345 -0.749827 1.234462
v 1.035290 -1.574481 0.699785
v 0.200158 -0.462798 1.233755
v 1.153936 -1.580902 0.479441
v 1.226356 -1.580183 0.240078
v 1.249820 -1.580608 -0.006871
v 1.223919 -1.583307 -0.253231
v 1.149751 -1.581141 -0.489543
v 0.462670 -0.428391 1.160882
v 1.030440 -1.579915 -0.706842
v 0.689307 -0.430279 1.042491
v 0.869705 -1.574911 -0.897338
v 0.881376 -0.430279 0.886263
v 0.675594 -1.566406 -1.051528
v 1.039021 -0.421186 0.694355
v 0.450669 -1.550432 -1.165853
v 1.155256 -0.418713 0.476253
v 0.212992 -1.551863 -1.231377
v 1.226491 -0.416503 0.239352
v -0.066434 -1.535306 -1.248207
v 1.249825 -0.419596 -0.006699
v 1.223996 -0.416703 -0.252812
v 1.150127 -0.417647 -0.488635
v 1.031610 -0.417713 -0.705138
v 0.872147 -0.423579 -0.895021
v -0.097508 -1.257326 -1.245762
v 0.677890 -0.430279 -1.050121
v -0.095694 -0.998761 -1.245904
v 0.453576 -0.446476 -1.164649
v -0.095925 -0.739780 -1.245886
v 0.212701 -0.445240 -1.231430
v -0.065786 -0.462908 -1.248258
v 0.373344 -1.375739 1.192650
v 0.571631 -1.353140 1.111509
v 0.424879 -1.156354 1.175149
v 0.775626 -1.341803 0.979892
v 0.456086 -0.885820 1.163610
v 0.954878 -1.355443 0.806033
v 0.378825 -0.631800 1.191026
v 1.098965 -1.374806 0.594733
v 1.195910 -1.382206 0.362338
v 1.244174 -1.384057 0.117684
v 1.243173 -1.384795 -0.130394
v 1.192801 -1.379922 -0.372834
v 1.095666 -1.378596 -0.600810
v 0.584559 -0.647271 1.104489
v 0.954689 -1.374226 -0.806255
v 0.794210 -0.645433 0.964976
v 0.773954 -1.356414 -0.981175
v 0.967918 -0.631202 0.790765
v 0.570182 -1.340675 -1.112295
v 1.103702 -0.621898 0.586009
v 0.322729 -1.293192 -1.207598
v 1.197080 -0.619110 0.358388
v 0.098859 -1.354506 -1.245655
v 1.244274 -0.615426 0.116405
v 1.243176 -0.616397 -0.130360
v 1.193026 -0.619774 -0.372075
v 1.096798 -0.620522 -0.598726
v 0.959108 -0.618812 -0.801080
v 0.783468 -0.632139 -0.973875
v 0.112884 -1.127656 -1.244551
v 0.576200 -0.660453 -1.109028
v 0.114292 -0.868159 -1.244441
v 0.326557 -0.698430 -1.206509
v 0.102623 -0.640701 -1.245359
v 0.648182 -1.110527 1.068326
v 0.862398 -1.107271 0.904272
v 1.030149 -1.176132 0.707265
v 1.153734 -1.186394 0.479927
v 1.226306 -1.188282 0.240350
v 1.249823 -1.189036 -0.006768
v 1.224016 -1.189594 -0.252705
v 1.150236 -1.188907 -0.488372
v 1.031890 -1.187536 -0.704732
v 0.870979 -1.176481 -0.896129
v 0.894331 -0.849496 0.872875
v 0.672696 -1.112183 -1.053304
v 1.044425 -0.814085 0.686492
v 0.481220 -1.132121 -1.153199
v 1.156874 -0.811625 0.472347
v 1.226767 -0.811434 0.237862
v 1.249809 -0.811021 -0.007287
v 1.224055 -0.811438 -0.252495
v 1.150765 -0.811586 -0.487095
v 1.034960 -0.811228 -0.700264
v 0.881902 -0.814189 -0.885764
v 0.695916 -0.850494 -1.037948
v 0.514332 -0.905683 -1.139112
v 1.197256 -1.000683 0.357793
v 1.244270 -1.000028 0.116457
v 1.243130 -1.000419 -0.130828
v 1.193017 -1.000770 -0.372105
v 1.097816 -1.000509 -0.596849
v 0.965191 -0.997978 -0.793959
v 0.816181 -0.992957 -0.946211
v -1.247576 -0.986840 -0.074453
v -1.239233 -1.003043 0.160433
v -0.879593 -1.108785 0.887955
v -1.063700 -1.101294 0.655730
v -0.656317 -1.831484 -1.063340
v -0.685044 -1.621849 -1.045421
v -0.975088 -1.765865 -0.781886
v -0.697737 -1.379535 -1.036697
v -1.109474 -1.782147 -0.575378
v -0.697429 -1.125000 -1.036909
v -1.200254 -1.790742 -0.347672
v -0.697429 -0.875000 -1.036909
v -1.244731 -1.790742 -0.110605
v -0.702100 -0.618995 -1.033698
v -1.243154 -1.790742 0.130638
v -0.688358 -0.374800 -1.043143
v -1.194547 -1.790742 0.366940
v -0.657445 -0.168724 -1.062649
v -1.101762 -1.790742 0.589582
v -0.963560 -1.784099 0.795868
v -0.771212 -1.785917 0.983279
v -0.980301 -0.222712 -0.775093
v -0.509074 -1.812151 1.141620
v -1.111350 -0.209258 -0.571923
v -1.200254 -0.209258 -0.347672
v -1.244731 -0.209258 -0.110605
v -0.437300 -1.601003 1.170750
v -1.243154 -0.209258 0.130638
v -0.469638 -1.378447 1.157996
v -1.194547 -0.209258 0.366940
v -0.472836 -1.123884 1.156672
v -1.101762 -0.209258 0.589582
v -0.466460 -0.870384 1.159312
v -0.960900 -0.211090 0.798982
v -0.463901 -0.615245 1.160372
v -0.767981 -0.210575 0.985758
v -0.437046 -0.397859 1.170841
v -0.508380 -0.187415 1.141949
v -0.823250 -1.791922 -0.940173
v -0.831236 -0.203548 -0.933353
v -0.875070 -1.523468 -0.892247
v -1.047085 -1.566683 -0.682622
v -0.860528 -1.254794 -0.906047
v -1.158640 -1.566077 -0.468084
v -0.872267 -1.001672 -0.894907
v -1.226959 -1.568269 -0.236829
v -0.869171 -0.748349 -0.897845
v -1.249737 -1.575975 0.010044
v -0.880693 -0.466354 -0.886911
v -1.224524 -1.575975 0.249966
v -1.153501 -1.575975 0.480490
v -1.043032 -1.563290 0.688519
v -0.885819 -1.569119 0.881844
v -0.660951 -1.557940 1.060501
v -1.050599 -0.429037 -0.677110
v -1.161304 -0.429136 -0.461652
v -1.228186 -0.424025 -0.230208
v -1.249737 -0.424025 0.010044
v -1.224524 -0.424025 0.249966
v -0.672386 -1.251864 1.053494
v -1.153501 -0.424025 0.480490
v -0.672792 -0.992277 1.053245
v -1.039802 -0.424025 0.693219
v -0.644777 -0.732639 1.070413
v -0.876270 -0.419810 0.891108
v -0.658325 -0.432486 1.062110
v -0.986091 -1.365011 -0.767547
v -1.102968 -1.340672 -0.587360
v -1.010096 -1.136850 -0.736263
v -1.195465 -1.338442 -0.363839
v -1.032153 -0.883299 -0.704348
v -1.243704 -1.353478 -0.123653
v -0.995911 -0.637506 -0.754749
v -1.243838 -1.376020 0.121949
v -1.195196 -1.358770 0.364748
v -1.111387 -1.327055 0.571856
v -0.978243 -1.340141 0.777775
v -1.112426 -0.655701 -0.569942
v -1.201490 -0.644322 -0.343500
v -1.244999 -0.628893 -0.107201
v -1.242059 -0.629087 0.138965
v -1.191220 -0.641731 0.378172
v -0.803674 -0.617234 0.956893
v -1.097268 -0.652381 0.597859
v -0.840830 -0.846269 0.924740
v -0.958880 -0.644535 0.801348
v -1.137877 -1.106005 -0.516921
v -1.223792 -1.104562 -0.253915
v -1.249908 -1.171641 0.003496
v -1.229159 -1.192847 0.224957
v -0.819235 -1.366866 0.943603
v -1.178941 -1.074486 0.414172
v -1.168324 -0.880887 -0.444152
v -1.230460 -0.850073 -0.217938
v -1.249556 -0.814976 0.016966
v -1.219238 -0.841436 0.274246
v -1.143559 -0.869439 0.504491
v -1.007358 -0.874308 0.739831
v -0.264653 0.000000 0.249044
v 0.067050 0.000000 -0.037396
v -0.085202 0.000000 0.373085
v -0.108702 0.000000 0.108447
v 0.286848 0.000000 -1.013812
v 0.077086 0.000000 -1.005045
v 0.461251 0.000000 -0.897785
v -0.128626 0.000000 -1.044588
v 0.659301 0.000000 -0.827992
v -0.318316 0.000000 -0.962995
v 0.775742 0.000000 -0.653237
v -0.517581 0.000000 -0.919839
v 0.926499 0.000000 -0.508051
v -0.657960 0.000000 -0.779289
v 0.963010 0.000000 -0.302147
v -0.799902 0.000000 -0.618632
v 1.045297 0.000000 -0.109310
v -0.941863 0.000000 -0.481522
v 1.004997 0.000000 0.095554
v -0.976492 0.000000 -0.281350
v 1.008815 0.000000 0.304805
v -1.057892 0.000000 -0.094060
v 0.891914 0.000000 0.476950
v -1.008265 0.000000 0.105410
v 0.811938 0.000000 0.670003
v -1.008937 0.000000 0.309797
v 0.636830 0.000000 0.781912
v -0.896371 0.000000 0.480292
v 0.489731 0.000000 0.928035
v -0.822677 0.000000 0.671663
v 0.284250 0.000000 0.965993
v -0.649227 0.000000 0.780887
v 0.092823 0.000000 1.050764
v -0.507911 0.000000 0.927233
v -0.109904 0.000000 1.021277
v -0.313498 0.000000 0.981469
v 0.214084 0.000000 -0.766476
v -0.103598 0.000000 -0.785590
v 0.498671 0.000000 -0.623571
v -0.393447 0.000000 -0.697856
v 0.698445 0.000000 -0.382843
v 0.791943 0.000000 -0.081327
v -0.718257 0.000000 -0.360323
v -0.797249 0.000000 -0.070167
v 0.772589 0.000000 0.232018
v 0.612849 0.000000 0.503195
v -0.767351 0.000000 0.236735
v -0.621060 0.000000 0.507417
v 0.363987 0.000000 0.694787
v 0.067324 0.000000 0.803000
v -0.386851 0.000000 0.712210
v -0.594999 0.000000 -0.567063
v -0.171680 0.000000 0.813358
v 0.250483 0.000000 -0.481618
v 0.042430 0.000000 -0.571032
v -0.181343 0.000000 -0.489980
v 0.446432 0.000000 -0.372469
v 0.509049 0.000000 -0.146793
v 0.579996 0.000000 0.065246
v -0.508543 0.000000 -0.157480
v -0.577165 0.000000 0.061039
v 0.519642 0.000000 0.257253
v 0.332302 0.000000 0.388043
v -0.487589 0.000000 0.263300
v -0.329471 0.000000 0.453513
v 0.122743 0.000000 0.520884
v -0.421635 0.000000 -0.395867
v -0.125236 0.000000 0.593577
v 0.027585 0.000000 -0.309874
v 0.258470 0.000000 -0.203598
v 0.314265 0.000000 0.083035
v -0.346088 0.000000 0.047323
v -0.199292 0.000000 -0.174508
v 0.106337 0.000000 0.246835
# 480 vertices

f 191 2 53
f 425 427 45
f 45 186 188
f 424 449 422
f 27 100 98
f 169 60 61
f 311 370 393
f 393 406 311
f 383 398 382
f 121 94 96
f 214 166 168
f 170 217 216
f 216 217 253
f 282 253 283
f 393 370 372
f 61 167 169
f 456 459 441
f 328 329 361
f 100 122 98
f 227 225 262
f 260 262 225
f 304 284 285
f 148 147 80
f 329 331 362
f 64 65 161
f 129 112 114
f 216 214 168
f 282 302 155
f 151 150 82
f 264 227 262
f 471 454 457
f 477 408 480
f 471 470 454
f 374 346 344
f 302 282 283
f 378 380 396
f 64 337 65
f 396 380 397
f 351 353 318
f 406 392 405
f 442 459 457
f 285 305 304
f 284 255 285
f 362 331 335
f 150 138 139
f 172 217 170
f 268 294 295
f 253 217 254
f 366 336 334
f 311 406 312
f 125 142 139
f 360 327 328
f 233 231 268
f 121 145 130
f 97 13 95
f 475 460 461
f 102 104 125
f 231 186 229
f 385 384 360
f 118 130 145
f 418 78 420
f 81 82 79
f 230 187 232
f 266 294 268
f 231 266 268
f 348 77 78
f 78 77 420
f 110 112 129
f 455 433 452
f 326 78 4
f 418 4 78
f 455 435 433
f 318 320 56
f 348 78 326
f 146 143 129
f 56 320 57
f 410 479 478
f 313 34 347
f 330 77 348
f 137 148 149
f 335 331 66
f 121 138 145
f 121 130 94
f 255 218 219
f 185 187 230
f 13 175 173
f 228 263 226
f 441 459 442
f 391 374 373
f 183 228 226
f 305 285 286
f 340 338 369
f 83 115 85
f 200 56 57
f 226 224 181
f 154 277 301
f 55 196 54
f 308 290 300
f 132 147 148
f 218 255 254
f 91 119 93
f 237 239 197
f 392 406 394
f 17 168 166
f 62 167 61
f 254 217 218
f 390 405 392
f 253 282 252
f 114 113 131
f 134 147 133
f 404 405 390
f 225 223 260
f 147 134 151
f 82 81 152
f 117 119 89
f 299 300 273
f 97 99 12
f 186 231 188
f 231 233 188
f 223 225 180
f 273 300 275
f 188 233 190
f 412 443 411
f 422 420 77
f 72 432 430
f 453 450 430
f 272 237 236
f 276 277 154
f 195 236 237
f 295 269 268
f 169 171 60
f 235 271 236
f 293 155 302
f 236 271 272
f 447 463 464
f 102 29 104
f 93 119 120
f 29 323 321
f 145 134 118
f 121 122 138
f 62 63 165
f 232 187 189
f 112 34 114
f 362 337 368
f 168 170 216
f 153 249 279
f 341 63 62
f 111 109 128
f 277 276 278
f 150 142 79
f 74 428 426
f 143 146 81
f 276 242 278
f 420 446 418
f 194 191 53
f 54 316 55
f 155 293 291
f 450 426 428
f 162 210 208
f 281 250 252
f 286 306 305
f 82 150 79
f 368 399 362
f 206 204 59
f 399 385 361
f 71 338 340
f 71 434 432
f 132 148 135
f 416 446 444
f 255 284 254
f 110 108 32
f 218 217 172
f 269 233 268
f 70 434 71
f 70 71 340
f 66 331 1
f 16 91 15
f 16 15 170
f 135 119 117
f 204 206 205
f 127 124 141
f 427 451 429
f 400 384 312
f 120 119 136
f 265 274 154
f 292 265 154
f 293 302 294
f 33 347 34
f 33 34 112
f 72 338 71
f 72 71 432
f 225 182 180
f 468 451 465
f 452 431 429
f 264 266 229
f 280 153 279
f 92 130 118
f 93 15 91
f 170 168 16
f 87 117 89
f 189 191 194
f 31 108 106
f 315 32 317
f 228 185 230
f 453 467 450
f 263 261 226
f 311 312 385
f 445 417 415
f 233 269 234
f 320 318 353
f 145 138 151
f 142 143 79
f 357 330 348
f 110 32 33
f 211 209 247
f 85 18 19
f 19 18 164
f 298 271 297
f 429 451 452
f 271 298 272
f 458 420 422
f 470 407 478
f 219 175 220
f 458 449 473
f 441 442 3
f 357 348 324
f 138 150 151
f 271 235 270
f 426 449 424
f 364 333 332
f 104 30 106
f 227 229 184
f 182 227 184
f 415 413 445
f 465 477 468
f 451 427 425
f 336 338 72
f 370 341 372
f 25 96 94
f 214 250 212
f 377 353 351
f 124 127 105
f 361 329 362
f 363 330 357
f 401 379 395
f 312 384 385
f 80 147 151
f 65 335 66
f 54 194 53
f 358 323 325
f 274 276 154
f 313 347 314
f 129 143 126
f 178 223 180
f 474 459 456
f 433 49 48
f 180 48 49
f 87 17 18
f 17 166 18
f 18 166 164
f 115 133 132
f 475 461 462
f 5 111 113
f 300 301 275
f 60 171 3
f 303 284 304
f 280 250 281
f 182 48 180
f 443 461 460
f 342 344 69
f 441 3 52
f 52 3 171
f 395 376 378
f 263 290 261
f 67 442 440
f 180 49 178
f 319 30 321
f 321 323 356
f 113 111 128
f 241 277 243
f 366 367 336
f 246 210 248
f 88 1 90
f 177 220 175
f 250 214 252
f 276 274 240
f 255 219 256
f 210 212 248
f 283 284 303
f 162 164 210
f 356 380 354
f 475 479 408
f 448 465 451
f 266 231 229
f 212 210 164
f 208 160 162
f 15 172 170
f 33 32 315
f 216 253 252
f 234 192 190
f 3 346 60
f 3 442 67
f 3 67 346
f 441 52 439
f 213 165 211
f 277 241 275
f 230 265 228
f 380 356 382
f 354 380 378
f 241 239 275
f 435 49 433
f 368 311 399
f 2 114 34
f 2 34 313
f 138 122 139
f 2 191 5
f 2 5 113
f 433 48 431
f 46 427 429
f 184 186 46
f 47 48 182
f 47 431 48
f 294 302 303
f 97 120 123
f 395 378 396
f 146 129 131
f 29 30 104
f 29 321 30
f 439 456 441
f 12 177 175
f 357 381 363
f 40 197 39
f 40 39 415
f 212 250 248
f 287 306 286
f 446 473 462
f 143 81 79
f 319 321 354
f 350 376 375
f 121 98 122
f 401 395 396
f 423 44 43
f 44 190 43
f 325 27 327
f 28 323 29
f 28 29 102
f 446 420 458
f 250 280 248
f 158 21 160
f 69 436 70
f 69 70 342
f 438 436 69
f 279 249 247
f 115 117 85
f 197 239 199
f 204 58 59
f 59 326 4
f 356 323 358
f 76 424 422
f 413 411 443
f 103 9 10
f 10 9 181
f 227 264 229
f 254 284 283
f 285 255 256
f 68 344 346
f 68 346 67
f 68 67 440
f 136 119 135
f 110 129 126
f 376 350 352
f 81 146 144
f 457 440 442
f 213 167 165
f 143 142 126
f 241 201 199
f 201 241 243
f 290 308 288
f 321 356 354
f 406 405 312
f 227 182 225
f 358 383 382
f 198 196 55
f 184 229 186
f 183 8 185
f 316 318 55
f 103 10 101
f 271 270 297
f 416 4 418
f 195 197 40
f 423 43 421
f 192 43 190
f 25 329 328
f 288 308 307
f 312 405 400
f 355 381 357
f 289 280 156
f 249 213 211
f 166 214 212
f 443 460 445
f 249 211 247
f 399 311 385
f 309 402 396
f 31 30 319
f 31 106 30
f 31 319 317
f 31 32 108
f 31 317 32
f 24 329 25
f 24 25 94
f 288 287 259
f 299 298 307
f 473 479 462
f 234 269 270
f 109 127 128
f 378 376 352
f 152 81 144
f 144 146 128
f 346 374 345
f 476 460 475
f 463 460 476
f 333 364 365
f 144 127 141
f 298 299 272
f 179 10 181
f 9 183 181
f 59 4 206
f 113 128 131
f 388 402 403
f 163 209 211
f 479 410 408
f 13 12 175
f 13 97 12
f 42 419 421
f 219 218 173
f 68 440 438
f 68 438 69
f 68 69 344
f 416 414 35
f 36 412 37
f 36 37 203
f 36 414 412
f 237 197 195
f 108 110 126
f 136 148 137
f 315 347 33
f 23 90 1
f 23 1 331
f 23 92 90
f 23 331 24
f 23 24 92
f 456 439 437
f 368 370 311
f 265 230 267
f 33 112 110
f 398 383 400
f 334 74 333
f 428 74 73
f 334 73 74
f 336 72 73
f 73 72 430
f 167 213 215
f 341 62 343
f 174 51 52
f 51 439 52
f 437 439 51
f 174 52 171
f 384 383 359
f 360 384 359
f 383 358 359
f 477 465 464
f 102 100 28
f 396 402 401
f 122 125 139
f 200 57 202
f 113 114 2
f 367 338 336
f 410 409 480
f 382 397 380
f 324 326 59
f 55 56 198
f 458 473 446
f 355 357 322
f 479 475 462
f 206 4 35
f 416 35 4
f 37 201 203
f 239 241 199
f 415 417 40
f 269 295 296
f 228 265 263
f 135 148 136
f 317 350 315
f 20 83 19
f 20 19 162
f 209 161 207
f 411 37 412
f 352 319 354
f 320 355 322
f 288 261 290
f 453 454 470
f 478 407 410
f 198 56 200
f 140 149 141
f 445 460 463
f 162 160 20
f 293 294 266
f 309 403 402
f 382 398 397
f 456 437 455
f 174 176 51
f 115 132 117
f 56 55 318
f 317 319 352
f 383 384 400
f 203 201 243
f 60 346 345
f 397 398 310
f 339 63 341
f 163 165 63
f 472 456 455
f 437 435 455
f 355 320 353
f 89 17 87
f 132 135 117
f 387 364 386
f 11 101 10
f 11 10 179
f 179 222 177
f 480 409 472
f 42 43 192
f 42 421 43
f 287 286 257
f 387 402 388
f 397 310 309
f 202 244 242
f 244 204 205
f 264 293 266
f 174 169 215
f 274 265 267
f 47 429 431
f 47 182 184
f 464 463 476
f 193 41 42
f 419 42 41
f 109 111 6
f 189 5 191
f 189 6 5
f 6 111 5
f 189 187 6
f 215 176 174
f 409 410 407
f 157 158 159
f 457 438 440
f 16 168 17
f 16 17 89
f 80 82 152
f 234 235 192
f 213 251 215
f 450 428 430
f 449 426 450
f 365 364 387
f 365 334 333
f 171 169 174
f 340 342 70
f 454 436 438
f 261 288 259
f 176 178 50
f 120 97 95
f 11 99 101
f 222 179 224
f 422 77 76
f 77 330 76
f 450 467 466
f 75 333 74
f 75 74 426
f 75 426 424
f 50 49 435
f 50 178 49
f 50 437 51
f 50 51 176
f 50 435 437
f 192 235 193
f 394 373 371
f 445 463 447
f 425 44 423
f 45 427 46
f 45 46 186
f 163 161 209
f 208 210 246
f 106 108 126
f 349 316 314
f 159 65 66
f 157 66 1
f 245 209 207
f 211 165 163
f 260 153 289
f 47 46 429
f 47 184 46
f 203 244 205
f 408 410 480
f 219 220 256
f 177 12 11
f 11 12 99
f 73 430 428
f 336 73 334
f 249 153 258
f 293 264 291
f 309 310 403
f 444 461 443
f 26 25 328
f 26 96 25
f 176 221 178
f 259 287 257
f 84 21 86
f 160 21 20
f 84 20 21
f 61 60 345
f 475 408 476
f 161 65 159
f 159 66 157
f 456 472 474
f 27 325 28
f 27 28 100
f 98 26 27
f 327 27 26
f 220 222 257
f 417 41 40
f 195 40 41
f 195 41 193
f 41 417 419
f 85 19 83
f 38 201 37
f 38 37 411
f 242 244 278
f 408 477 476
f 387 388 365
f 153 280 289
f 24 331 329
f 38 413 39
f 38 39 199
f 22 86 21
f 22 21 158
f 22 158 157
f 22 88 86
f 22 1 88
f 22 157 1
f 371 392 394
f 406 393 394
f 369 392 371
f 327 26 328
f 98 96 26
f 356 358 382
f 93 120 95
f 14 172 15
f 14 15 93
f 14 95 13
f 14 13 173
f 457 454 438
f 471 457 474
f 256 220 257
f 120 137 123
f 173 175 219
f 183 9 8
f 105 8 9
f 228 183 185
f 101 99 123
f 286 285 256
f 452 433 431
f 205 36 203
f 205 206 35
f 205 35 36
f 35 414 36
f 159 158 207
f 373 342 371
f 390 389 404
f 391 373 394
f 308 299 307
f 275 239 273
f 234 270 235
f 233 234 190
f 371 340 369
f 366 388 389
f 403 404 389
f 402 387 401
f 332 333 75
f 424 76 75
f 332 75 76
f 449 450 466
f 466 473 449
f 248 280 279
f 367 366 389
f 345 343 61
f 238 196 198
f 449 458 422
f 259 222 224
f 105 107 8
f 222 259 257
f 105 9 103
f 7 109 6
f 7 6 187
f 7 8 107
f 7 185 8
f 11 179 177
f 84 83 20
f 188 190 44
f 39 413 415
f 188 44 45
f 45 44 425
f 367 389 390
f 287 288 307
f 181 183 226
f 243 244 203
f 165 167 62
f 359 327 360
f 362 399 361
f 341 370 339
f 94 130 92
f 196 194 54
f 318 316 351
f 400 310 398
f 310 404 403
f 141 149 152
f 107 109 7
f 187 185 7
f 140 137 149
f 57 320 322
f 238 274 267
f 434 70 436
f 412 414 444
f 443 445 413
f 387 386 401
f 407 470 471
f 195 193 236
f 202 204 244
f 235 236 193
f 239 237 273
f 128 146 131
f 328 361 360
f 261 259 224
f 80 152 149
f 169 167 215
f 246 248 279
f 374 343 345
f 374 391 372
f 213 249 251
f 160 208 207
f 447 419 417
f 417 445 447
f 444 443 412
f 444 446 462
f 258 251 249
f 447 421 419
f 306 298 297
f 466 467 478
f 128 127 144
f 152 144 141
f 240 274 238
f 198 240 238
f 124 123 140
f 397 309 396
f 58 204 202
f 322 357 324
f 477 464 476
f 64 63 339
f 393 391 394
f 368 337 339
f 339 337 64
f 335 337 362
f 137 120 136
f 125 106 126
f 14 93 95
f 173 172 14
f 218 172 173
f 116 115 84
f 99 97 123
f 471 474 409
f 354 378 352
f 80 151 82
f 282 155 281
f 400 405 404
f 291 289 156
f 207 161 159
f 89 91 16
f 119 91 89
f 375 351 349
f 314 316 54
f 469 472 455
f 477 469 468
f 337 335 65
f 145 151 134
f 193 42 192
f 200 240 198
f 194 196 232
f 375 349 350
f 19 164 162
f 263 265 292
f 127 107 105
f 103 124 105
f 325 327 359
f 221 223 178
f 339 370 368
f 448 425 423
f 237 272 273
f 230 232 267
f 232 238 267
f 306 287 307
f 292 290 263
f 300 290 301
f 292 154 301
f 244 243 278
f 202 57 58
f 200 202 242
f 377 379 353
f 366 334 365
f 392 369 390
f 115 83 84
f 369 367 390
f 289 262 260
f 468 452 451
f 466 479 473
f 461 444 462
f 305 306 297
f 295 304 296
f 163 63 64
f 313 314 53
f 351 316 349
f 158 160 207
f 245 208 246
f 480 472 469
f 149 148 80
f 87 18 85
f 247 246 279
f 133 115 116
f 303 295 294
f 223 221 258
f 260 223 258
f 215 251 221
f 221 251 258
f 375 376 377
f 404 310 400
f 118 134 116
f 360 361 385
f 344 342 373
f 374 344 373
f 343 374 372
f 409 407 471
f 122 102 125
f 100 102 122
f 358 325 359
f 207 208 245
f 118 90 92
f 134 133 116
f 24 94 92
f 448 423 421
f 291 264 262
f 153 260 258
f 332 330 363
f 62 61 343
f 247 245 246
f 432 434 453
f 371 342 340
f 453 434 454
f 338 367 369
f 350 349 315
f 381 379 386
f 377 376 395
f 478 479 466
f 409 474 472
f 314 54 53
f 464 465 448
f 448 447 464
f 421 447 448
f 142 150 139
f 104 106 125
f 469 477 480
f 118 88 90
f 467 470 478
f 276 240 242
f 470 467 453
f 221 176 215
f 349 347 315
f 301 290 292
f 272 299 273
f 39 197 199
f 261 224 226
f 224 179 181
f 305 297 296
f 297 270 296
f 379 377 395
f 468 469 452
f 155 291 156
f 291 262 289
f 214 216 252
f 281 155 156
f 64 161 163
f 389 388 403
f 86 116 84
f 242 240 200
f 58 57 322
f 324 58 322
f 270 269 296
f 307 298 306
f 303 304 295
f 349 314 347
f 324 59 58
f 127 109 107
f 140 123 137
f 280 281 156
f 141 124 140
f 286 256 257
f 296 304 305
f 332 76 330
f 282 281 252
f 253 254 283
f 355 379 381
f 277 275 301
f 372 341 343
f 247 209 245
f 142 125 126
f 434 436 454
f 28 325 323
f 430 432 453
f 353 379 355
f 413 38 411
f 123 124 101
f 300 299 308
f 222 220 177
f 116 86 88
f 388 366 365
f 118 116 88
f 459 474 457
f 2 313 53
f 386 379 401
f 386 364 363
f 129 114 131
f 164 166 212
f 393 372 391
f 199 201 38
f 85 117 87
f 324 348 326
f 194 232 189
f 243 277 278
f 363 381 386
f 363 364 332
f 448 451 425
f 232 196 238
f 377 351 375
f 302 283 303
f 124 103 101
f 455 452 469
f 352 350 317
f 416 444 414
f 446 416 418
f 96 98 121
f 133 147 132
# 956 faces

