v 1.243152 -2.000000 0.130661
v -1.082532 -2.000000 0.625000
v 1.243152 0.000000 0.130661
v -1.082532 0.000000 0.625000
v -1.243152 -2.000000 0.130661
v -1.188821 -2.000000 -0.386271
v -0.928931 -2.000000 -0.836413
v -0.508421 -2.000000 -1.141932
v 0.000000 -2.000000 -1.250000
v 0.508421 -2.000000 -1.141932
v 0.928931 -2.000000 -0.836413
v 1.188821 -2.000000 -0.386271
v 1.082532 -2.000000 0.625000
v 0.734732 -2.000000 1.011271
v 0.259890 -2.000000 1.222685
v -0.259890 -2.000000 1.222685
v -0.734732 -2.000000 1.011271
v -1.243152 0.000000 0.130661
v -1.188821 0.000000 -0.386271
v -0.928931 0.000000 -0.836413
v -0.508421 0.000000 -1.141932
v 0.000000 0.000000 -1.250000
v 0.508421 0.000000 -1.141932
v 0.928931 0.000000 -0.836413
v 1.188821 0.000000 -0.386271
v -1.082532 -1.500000 0.625000
v -1.082532 -1.000000 0.625000
v -1.082532 -0.500000 0.625000
v 1.243152 -0.500000 0.130661
v 1.243152 -1.000000 0.130661
v 1.243152 -1.500000 0.130661
v 1.082532 0.000000 0.625000
v 0.734732 0.000000 1.011271
v 0.259890 0.000000 1.222685
v -0.259890 0.000000 1.222685
v -0.734732 0.000000 1.011271
v 0.304036 -2.000000 0.143385
v -0.094781 -2.000000 0.333828
v -0.402816 -2.000000 0.057533
v 0.303132 -2.000000 -0.300397
v 0.595562 -2.000000 -0.583143
v 0.712516 -2.000000 0.404938
v 0.000012 -2.000000 -0.755665
v -0.172917 -2.000000 0.795977
v -0.561556 -2.000000 -0.505652
v -0.825212 -2.000000 0.063301
v 0.735943 -2.000000 -0.095076
v 0.300536 -2.000000 0.677814
v -0.577865 -2.000000 0.517297
v -0.082186 -2.000000 -0.185348
v -0.915839 -1.006692 -0.850209
v -1.170578 -0.987685 -0.437788
v 1.128531 -0.903763 -0.536517
v -1.248781 -0.936017 -0.046570
v 1.234524 -1.618706 -0.196009
v 1.086594 -1.457945 -0.617519
v 0.731580 -1.488281 -1.013437
v 1.229356 -0.548570 -0.223894
v 0.256620 -1.500109 -1.223291
v -0.259868 -1.546606 -1.222689
v -0.734709 -1.546606 -1.011287
v 1.049542 -0.481197 -0.678835
v -1.078080 -1.499993 -0.632265
v 0.712411 -0.488891 -1.026612
v -1.243697 -1.484829 -0.123741
v 0.251883 -0.493948 -1.224168
v -1.209918 -1.628719 0.313065
v -0.259868 -0.453394 -1.222689
v -0.734709 -0.453394 -1.011287
v -1.070144 -0.493600 -0.645215
v -1.215386 -0.556132 0.290290
v -1.235067 -0.489372 -0.192076
v 1.229851 -1.147848 -0.221225
v -1.215519 -1.162216 0.289737
v 0.892535 -0.969250 -0.874766
v 0.492797 -0.992369 -1.148403
v 0.000020 -1.000000 -1.249999
v -0.508398 -1.000000 -1.141941
v 0.261088 -1.001123 1.222397
v 0.689696 -0.987685 1.042224
v -0.597646 -0.903763 1.097384
v 0.982913 -0.936017 0.771689
v -0.883541 -1.618706 0.884208
v -0.516107 -1.457946 1.138266
v 0.002239 -1.488618 1.249941
v -0.862969 -0.548570 0.903730
v 0.503866 -1.492711 1.143818
v 0.933441 -1.484830 0.831133
v 1.162860 -1.628720 0.457896
v -0.453379 -0.474719 1.164731
v 0.019160 -0.489120 1.249498
v 0.491564 -0.497019 1.148914
v 1.153897 -0.556133 0.479535
v 0.886294 -0.489372 0.881344
v -0.864938 -1.147848 0.901862
v 1.153679 -1.162217 0.480061
v -0.210356 -0.969734 1.231865
v -0.225842 0.000000 0.230930
v 0.205157 0.000000 0.210836
v 0.397456 0.000000 -0.160545
v -0.400685 0.000000 -0.158215
v -0.783755 0.000000 -0.283987
v -0.478863 0.000000 0.643181
v -0.321995 0.000000 -0.668854
v 0.322339 0.000000 -0.667830
v 0.474943 0.000000 0.642549
v 0.778833 0.000000 -0.285616
v -0.713980 0.000000 0.206205
v -0.002036 0.000000 0.706401
v 0.707416 0.000000 0.203511
v -0.003135 0.000000 -0.223088
# 111 vertices

f 66 64 76
f 104 102 101
f 22 105 23
f 22 23 66
f 22 21 104
f 22 68 21
f 83 17 84
f 33 32 106
f 33 94 32
f 89 96 88
f 55 56 73
f 32 3 110
f 76 77 66
f 77 78 68
f 5 67 65
f 13 89 88
f 46 2 5
f 2 67 5
f 13 88 14
f 13 14 42
f 13 42 1
f 13 1 89
f 70 69 51
f 49 2 46
f 22 66 68
f 78 69 68
f 31 89 1
f 31 1 55
f 51 63 52
f 45 6 7
f 30 58 29
f 82 93 94
f 34 106 109
f 82 96 93
f 93 96 30
f 92 91 79
f 3 93 29
f 77 68 66
f 29 58 3
f 33 106 34
f 98 103 109
f 61 7 63
f 22 104 105
f 76 64 75
f 69 78 51
f 57 10 59
f 59 77 76
f 85 97 84
f 26 95 27
f 74 27 71
f 108 102 18
f 80 88 82
f 47 37 40
f 38 44 49
f 65 54 52
f 75 57 76
f 72 70 52
f 67 26 74
f 44 17 49
f 108 98 101
f 52 63 65
f 58 53 62
f 73 30 31
f 50 38 39
f 84 16 85
f 40 37 50
f 74 26 27
f 110 107 100
f 81 95 84
f 84 97 81
f 48 42 14
f 72 54 71
f 104 111 105
f 91 35 90
f 103 35 109
f 101 111 104
f 96 89 31
f 3 107 110
f 44 16 17
f 84 17 16
f 106 32 110
f 34 109 35
f 103 36 35
f 90 35 36
f 90 36 86
f 37 38 50
f 88 96 82
f 64 24 62
f 71 54 74
f 51 78 61
f 105 107 24
f 34 92 33
f 106 110 99
f 6 45 46
f 56 57 75
f 47 40 41
f 53 73 56
f 75 53 56
f 63 6 65
f 65 67 74
f 51 61 63
f 37 42 48
f 48 38 37
f 43 50 45
f 98 99 111
f 53 58 73
f 73 58 30
f 101 98 111
f 97 91 90
f 87 80 79
f 85 87 79
f 28 27 86
f 78 77 60
f 99 100 111
f 45 50 39
f 100 105 111
f 99 110 100
f 4 36 103
f 4 86 36
f 67 2 26
f 109 106 99
f 35 91 34
f 108 4 103
f 2 83 26
f 4 71 28
f 52 70 51
f 76 57 59
f 71 27 28
f 103 98 108
f 101 102 108
f 86 27 95
f 107 3 25
f 3 58 25
f 91 92 34
f 68 69 21
f 74 54 65
f 61 78 60
f 43 9 10
f 59 10 9
f 80 92 79
f 92 80 94
f 31 30 96
f 43 45 8
f 19 72 18
f 8 61 60
f 60 77 59
f 81 86 95
f 59 9 60
f 86 4 28
f 62 25 58
f 107 25 24
f 62 24 25
f 24 23 105
f 24 64 23
f 57 56 11
f 47 41 12
f 94 33 92
f 80 82 94
f 42 47 1
f 11 12 41
f 56 12 11
f 55 73 31
f 55 12 56
f 11 10 57
f 11 41 10
f 15 44 48
f 15 16 44
f 15 85 16
f 85 79 97
f 43 40 50
f 81 97 90
f 20 70 19
f 20 19 102
f 49 17 2
f 17 83 2
f 90 86 81
f 26 83 95
f 39 38 49
f 20 69 70
f 66 23 64
f 30 29 93
f 18 102 19
f 32 94 93
f 54 72 52
f 45 39 46
f 7 6 63
f 46 5 6
f 6 5 65
f 19 70 72
f 8 9 43
f 8 60 9
f 84 95 83
f 8 45 7
f 8 7 61
f 21 69 20
f 53 75 62
f 87 14 88
f 87 85 15
f 87 15 14
f 14 15 48
f 3 32 93
f 47 42 37
f 100 107 105
f 41 40 43
f 91 97 79
f 38 48 44
f 49 46 39
f 41 43 10
f 75 64 62
f 18 71 4
f 104 21 20
f 108 18 4
f 18 72 71
f 55 1 12
f 1 47 12
f 99 98 109
f 88 80 87
f 20 102 104
# 218 faces

